<?xml version="1.0" encoding="UTF-8" standalone="no"?>
<!DOCTYPE svg PUBLIC "-//W3C//DTD SVG 1.1//EN"
 "http://www.w3.org/Graphics/SVG/1.1/DTD/svg11.dtd">
<!-- Generated by graphviz version 2.40.1 (20161225.0304)
 -->
<!-- Title: compactRelationshipsDiagram Pages: 1 -->
<svg width="705pt" height="439pt"
 viewBox="0.00 0.00 705.00 439.20" xmlns="http://www.w3.org/2000/svg" xmlns:xlink="http://www.w3.org/1999/xlink">
<g id="graph0" class="graph" transform="scale(1 1) rotate(0) translate(4 435.2)">
<title>compactRelationshipsDiagram</title>
<polygon fill="#ffffff" stroke="transparent" points="-4,4 -4,-435.2 701,-435.2 701,4 -4,4"/>
<text text-anchor="middle" x="72.4936" y="-7.3" font-family="Helvetica,sans-Serif" font-size="11.00" fill="#000000">Generated by SchemaSpy</text>
<!-- ContributionTable -->
<g id="node1" class="node">
<title>ContributionTable</title>
<g id="a_node1"><a xlink:href="../../tables/ContributionTable.html" xlink:title="ContributionTable" target="_top">
<polygon fill="#ffffff" stroke="transparent" points="219.5,-142.2 219.5,-225.2 362.5,-225.2 362.5,-142.2 219.5,-142.2"/>
<polygon fill="#f5f5f5" stroke="transparent" points="220,-201.7 220,-224.7 363,-224.7 363,-201.7 220,-201.7"/>
<polygon fill="none" stroke="#000000" points="220,-201.7 220,-224.7 363,-224.7 363,-201.7 220,-201.7"/>
<text text-anchor="start" x="225" y="-210.8" font-family="Helvetica,sans-Serif" font-weight="bold" font-size="11.00" fill="#000000">ContributionTable</text>
<text text-anchor="start" x="328.0437" y="-209.8" font-family="Helvetica,sans-Serif" font-size="11.00" fill="#000000">[table]</text>
<polygon fill="none" stroke="#000000" points="220,-179.7 220,-201.7 363,-201.7 363,-179.7 220,-179.7"/>
<image xlink:href="../../images/primaryKeys.png" width="11px" height="12px" preserveAspectRatio="xMinYMin meet" x="225" y="-196.7"/>
<text text-anchor="start" x="240" y="-186.8" font-family="Helvetica,sans-Serif" font-size="11.00" fill="#000000">cldf_id</text>
<polygon fill="none" stroke="#000000" points="220,-160.7 220,-179.7 363,-179.7 363,-160.7 220,-160.7"/>
<text text-anchor="start" x="223" y="-166.8" font-family="Helvetica,sans-Serif" font-size="11.00" fill="#000000">...</text>
<polygon fill="#ffffff" stroke="transparent" points="220,-141.7 220,-160.7 257,-160.7 257,-141.7 220,-141.7"/>
<polygon fill="none" stroke="#000000" points="220,-141.7 220,-160.7 257,-160.7 257,-141.7 220,-141.7"/>
<text text-anchor="start" x="223" y="-147.8" font-family="Helvetica,sans-Serif" font-size="11.00" fill="#000000"> &#160;</text>
<polygon fill="#ffffff" stroke="transparent" points="257,-141.7 257,-160.7 329,-160.7 329,-141.7 257,-141.7"/>
<polygon fill="none" stroke="#000000" points="257,-141.7 257,-160.7 329,-160.7 329,-141.7 257,-141.7"/>
<text text-anchor="start" x="272.2089" y="-147.8" font-family="Helvetica,sans-Serif" font-size="11.00" fill="#000000">3,128 rows</text>
<polygon fill="#ffffff" stroke="transparent" points="329,-141.7 329,-160.7 363,-160.7 363,-141.7 329,-141.7"/>
<polygon fill="none" stroke="#000000" points="329,-141.7 329,-160.7 363,-160.7 363,-141.7 329,-141.7"/>
<text text-anchor="start" x="344.4053" y="-147.8" font-family="Helvetica,sans-Serif" font-size="11.00" fill="#000000">3 &gt;</text>
</a>
</g>
</g>
<!-- ContributionTable_MediaTable -->
<g id="node2" class="node">
<title>ContributionTable_MediaTable</title>
<g id="a_node2"><a xlink:href="../../tables/ContributionTable_MediaTable.html" xlink:title="ContributionTable_MediaTable" target="_top">
<polygon fill="#ffffff" stroke="transparent" points="449.5,-322.2 449.5,-427.2 676.5,-427.2 676.5,-322.2 449.5,-322.2"/>
<polygon fill="#f5f5f5" stroke="transparent" points="450,-403.7 450,-426.7 677,-426.7 677,-403.7 450,-403.7"/>
<polygon fill="none" stroke="#000000" points="450,-403.7 450,-426.7 677,-426.7 677,-403.7 450,-403.7"/>
<text text-anchor="start" x="455" y="-412.8" font-family="Helvetica,sans-Serif" font-weight="bold" font-size="11.00" fill="#000000">ContributionTable_MediaTable</text>
<text text-anchor="start" x="642.0437" y="-411.8" font-family="Helvetica,sans-Serif" font-size="11.00" fill="#000000">[table]</text>
<polygon fill="none" stroke="#000000" points="450,-381.7 450,-403.7 677,-403.7 677,-381.7 450,-381.7"/>
<image xlink:href="../../images/foreignKeys.png" width="11px" height="12px" preserveAspectRatio="xMinYMin meet" x="455" y="-398.7"/>
<text text-anchor="start" x="470" y="-388.8" font-family="Helvetica,sans-Serif" font-size="11.00" fill="#000000">ContributionTable_cldf_id</text>
<polygon fill="none" stroke="#000000" points="450,-359.7 450,-381.7 677,-381.7 677,-359.7 450,-359.7"/>
<image xlink:href="../../images/foreignKeys.png" width="11px" height="12px" preserveAspectRatio="xMinYMin meet" x="455" y="-376.7"/>
<text text-anchor="start" x="470" y="-366.8" font-family="Helvetica,sans-Serif" font-size="11.00" fill="#000000">MediaTable_cldf_id</text>
<polygon fill="none" stroke="#000000" points="450,-340.7 450,-359.7 677,-359.7 677,-340.7 450,-340.7"/>
<text text-anchor="start" x="453" y="-346.8" font-family="Helvetica,sans-Serif" font-size="11.00" fill="#000000">...</text>
<polygon fill="#ffffff" stroke="transparent" points="450,-321.7 450,-340.7 538,-340.7 538,-321.7 450,-321.7"/>
<polygon fill="none" stroke="#000000" points="450,-321.7 450,-340.7 538,-340.7 538,-321.7 450,-321.7"/>
<text text-anchor="start" x="453" y="-327.8" font-family="Helvetica,sans-Serif" font-size="11.00" fill="#000000">&lt; 2</text>
<polygon fill="#ffffff" stroke="transparent" points="538,-321.7 538,-340.7 631,-340.7 631,-321.7 538,-321.7"/>
<polygon fill="none" stroke="#000000" points="538,-321.7 538,-340.7 631,-340.7 631,-321.7 538,-321.7"/>
<text text-anchor="start" x="574.2089" y="-327.8" font-family="Helvetica,sans-Serif" font-size="11.00" fill="#000000">3,435 rows</text>
<polygon fill="#ffffff" stroke="transparent" points="631,-321.7 631,-340.7 677,-340.7 677,-321.7 631,-321.7"/>
<polygon fill="none" stroke="#000000" points="631,-321.7 631,-340.7 677,-340.7 677,-321.7 631,-321.7"/>
<text text-anchor="start" x="667.8862" y="-327.8" font-family="Helvetica,sans-Serif" font-size="11.00" fill="#000000"> &#160;</text>
</a>
</g>
</g>
<!-- ContributionTable_MediaTable&#45;&gt;ContributionTable -->
<g id="edge1" class="edge">
<title>ContributionTable_MediaTable:w&#45;&gt;ContributionTable:e</title>
<path fill="none" stroke="#000000" d="M435.3002,-390.8293C363.8789,-370.4652 455.2139,-190.7 363,-190.7"/>
<polygon fill="#000000" stroke="#000000" points="442.064,-391.69 449.5455,-396.2712 446.032,-392.195 450,-392.7 450,-392.7 450,-392.7 446.032,-392.195 450.4545,-389.1288 442.064,-391.69 442.064,-391.69"/>
<ellipse fill="none" stroke="#000000" cx="438.8896" cy="-391.286" rx="3.2" ry="3.2"/>
</g>
<!-- MediaTable -->
<g id="node6" class="node">
<title>MediaTable</title>
<g id="a_node6"><a xlink:href="../../tables/MediaTable.html" xlink:title="MediaTable" target="_top">
<polygon fill="#ffffff" stroke="transparent" points="8,-286.2 8,-369.2 145,-369.2 145,-286.2 8,-286.2"/>
<polygon fill="#f5f5f5" stroke="transparent" points="8.5,-345.7 8.5,-368.7 145.5,-368.7 145.5,-345.7 8.5,-345.7"/>
<polygon fill="none" stroke="#000000" points="8.5,-345.7 8.5,-368.7 145.5,-368.7 145.5,-345.7 8.5,-345.7"/>
<text text-anchor="start" x="13.5" y="-354.8" font-family="Helvetica,sans-Serif" font-weight="bold" font-size="11.00" fill="#000000">MediaTable</text>
<text text-anchor="start" x="110.5437" y="-353.8" font-family="Helvetica,sans-Serif" font-size="11.00" fill="#000000">[table]</text>
<polygon fill="none" stroke="#000000" points="8.5,-323.7 8.5,-345.7 145.5,-345.7 145.5,-323.7 8.5,-323.7"/>
<image xlink:href="../../images/primaryKeys.png" width="11px" height="12px" preserveAspectRatio="xMinYMin meet" x="13.5" y="-340.7"/>
<text text-anchor="start" x="28.5" y="-330.8" font-family="Helvetica,sans-Serif" font-size="11.00" fill="#000000">cldf_id</text>
<polygon fill="none" stroke="#000000" points="8.5,-304.7 8.5,-323.7 145.5,-323.7 145.5,-304.7 8.5,-304.7"/>
<text text-anchor="start" x="11.5" y="-310.8" font-family="Helvetica,sans-Serif" font-size="11.00" fill="#000000">...</text>
<polygon fill="#ffffff" stroke="transparent" points="8.5,-285.7 8.5,-304.7 47.5,-304.7 47.5,-285.7 8.5,-285.7"/>
<polygon fill="none" stroke="#000000" points="8.5,-285.7 8.5,-304.7 47.5,-304.7 47.5,-285.7 8.5,-285.7"/>
<text text-anchor="start" x="11.5" y="-291.8" font-family="Helvetica,sans-Serif" font-size="11.00" fill="#000000"> &#160;</text>
<polygon fill="#ffffff" stroke="transparent" points="47.5,-285.7 47.5,-304.7 110.5,-304.7 110.5,-285.7 47.5,-285.7"/>
<polygon fill="none" stroke="#000000" points="47.5,-285.7 47.5,-304.7 110.5,-304.7 110.5,-285.7 47.5,-285.7"/>
<text text-anchor="start" x="62.8807" y="-291.8" font-family="Helvetica,sans-Serif" font-size="11.00" fill="#000000">357 rows</text>
<polygon fill="#ffffff" stroke="transparent" points="110.5,-285.7 110.5,-304.7 145.5,-304.7 145.5,-285.7 110.5,-285.7"/>
<polygon fill="none" stroke="#000000" points="110.5,-285.7 110.5,-304.7 145.5,-304.7 145.5,-285.7 110.5,-285.7"/>
<text text-anchor="start" x="126.9053" y="-291.8" font-family="Helvetica,sans-Serif" font-size="11.00" fill="#000000">2 &gt;</text>
</a>
</g>
</g>
<!-- ContributionTable_MediaTable&#45;&gt;MediaTable -->
<g id="edge2" class="edge">
<title>ContributionTable_MediaTable:w&#45;&gt;MediaTable:e</title>
<path fill="none" stroke="#000000" d="M435.3109,-370.842C329.4632,-372.8983 292.9655,-396.0867 186,-361.7 165.4048,-355.0791 167.1333,-334.7 145.5,-334.7"/>
<polygon fill="#000000" stroke="#000000" points="442.0004,-370.7774 450.0348,-374.2998 446.0002,-370.7387 450,-370.7 450,-370.7 450,-370.7 446.0002,-370.7387 449.9652,-367.1002 442.0004,-370.7774 442.0004,-370.7774"/>
<ellipse fill="none" stroke="#000000" cx="438.8005" cy="-370.8084" rx="3.2" ry="3.2"/>
</g>
<!-- ContributionTable_SourceTable -->
<g id="node3" class="node">
<title>ContributionTable_SourceTable</title>
<g id="a_node3"><a xlink:href="../../tables/ContributionTable_SourceTable.html" xlink:title="ContributionTable_SourceTable" target="_top">
<polygon fill="#ffffff" stroke="transparent" points="447,-56.2 447,-161.2 679,-161.2 679,-56.2 447,-56.2"/>
<polygon fill="#f5f5f5" stroke="transparent" points="447,-137.7 447,-160.7 679,-160.7 679,-137.7 447,-137.7"/>
<polygon fill="none" stroke="#000000" points="447,-137.7 447,-160.7 679,-160.7 679,-137.7 447,-137.7"/>
<text text-anchor="start" x="452" y="-146.8" font-family="Helvetica,sans-Serif" font-weight="bold" font-size="11.00" fill="#000000">ContributionTable_SourceTable</text>
<text text-anchor="start" x="644.0437" y="-145.8" font-family="Helvetica,sans-Serif" font-size="11.00" fill="#000000">[table]</text>
<polygon fill="none" stroke="#000000" points="447,-115.7 447,-137.7 679,-137.7 679,-115.7 447,-115.7"/>
<image xlink:href="../../images/foreignKeys.png" width="11px" height="12px" preserveAspectRatio="xMinYMin meet" x="452" y="-132.7"/>
<text text-anchor="start" x="467" y="-122.8" font-family="Helvetica,sans-Serif" font-size="11.00" fill="#000000">ContributionTable_cldf_id</text>
<polygon fill="none" stroke="#000000" points="447,-93.7 447,-115.7 679,-115.7 679,-93.7 447,-93.7"/>
<image xlink:href="../../images/foreignKeys.png" width="11px" height="12px" preserveAspectRatio="xMinYMin meet" x="452" y="-110.7"/>
<text text-anchor="start" x="467" y="-100.8" font-family="Helvetica,sans-Serif" font-size="11.00" fill="#000000">SourceTable_id</text>
<polygon fill="none" stroke="#000000" points="447,-74.7 447,-93.7 679,-93.7 679,-74.7 447,-74.7"/>
<text text-anchor="start" x="450" y="-80.8" font-family="Helvetica,sans-Serif" font-size="11.00" fill="#000000">...</text>
<polygon fill="#ffffff" stroke="transparent" points="447,-55.7 447,-74.7 538,-74.7 538,-55.7 447,-55.7"/>
<polygon fill="none" stroke="#000000" points="447,-55.7 447,-74.7 538,-74.7 538,-55.7 447,-55.7"/>
<text text-anchor="start" x="450" y="-61.8" font-family="Helvetica,sans-Serif" font-size="11.00" fill="#000000">&lt; 2</text>
<polygon fill="#ffffff" stroke="transparent" points="538,-55.7 538,-74.7 632,-74.7 632,-55.7 538,-55.7"/>
<polygon fill="none" stroke="#000000" points="538,-55.7 538,-74.7 632,-74.7 632,-55.7 538,-55.7"/>
<text text-anchor="start" x="575.2089" y="-61.8" font-family="Helvetica,sans-Serif" font-size="11.00" fill="#000000">6,256 rows</text>
<polygon fill="#ffffff" stroke="transparent" points="632,-55.7 632,-74.7 679,-74.7 679,-55.7 632,-55.7"/>
<polygon fill="none" stroke="#000000" points="632,-55.7 632,-74.7 679,-74.7 679,-55.7 632,-55.7"/>
<text text-anchor="start" x="669.8862" y="-61.8" font-family="Helvetica,sans-Serif" font-size="11.00" fill="#000000"> &#160;</text>
</a>
</g>
</g>
<!-- ContributionTable_SourceTable&#45;&gt;ContributionTable -->
<g id="edge3" class="edge">
<title>ContributionTable_SourceTable:w&#45;&gt;ContributionTable:e</title>
<path fill="none" stroke="#000000" d="M432.6569,-129.1307C401.5984,-140.8211 404.4345,-190.7 363,-190.7"/>
<polygon fill="#000000" stroke="#000000" points="439.1125,-128.0368 447.6015,-130.2494 443.0562,-127.3684 447,-126.7 447,-126.7 447,-126.7 443.0562,-127.3684 446.3985,-123.1506 439.1125,-128.0368 439.1125,-128.0368"/>
<ellipse fill="none" stroke="#000000" cx="435.9574" cy="-128.5715" rx="3.2" ry="3.2"/>
</g>
<!-- SourceTable -->
<g id="node7" class="node">
<title>SourceTable</title>
<g id="a_node7"><a xlink:href="../../tables/SourceTable.html" xlink:title="SourceTable" target="_top">
<polygon fill="#ffffff" stroke="transparent" points="233.5,-38.2 233.5,-121.2 348.5,-121.2 348.5,-38.2 233.5,-38.2"/>
<polygon fill="#f5f5f5" stroke="transparent" points="234,-97.7 234,-120.7 349,-120.7 349,-97.7 234,-97.7"/>
<polygon fill="none" stroke="#000000" points="234,-97.7 234,-120.7 349,-120.7 349,-97.7 234,-97.7"/>
<text text-anchor="start" x="239" y="-106.8" font-family="Helvetica,sans-Serif" font-weight="bold" font-size="11.00" fill="#000000">SourceTable</text>
<text text-anchor="start" x="314.0437" y="-105.8" font-family="Helvetica,sans-Serif" font-size="11.00" fill="#000000">[table]</text>
<polygon fill="none" stroke="#000000" points="234,-75.7 234,-97.7 349,-97.7 349,-75.7 234,-75.7"/>
<image xlink:href="../../images/primaryKeys.png" width="11px" height="12px" preserveAspectRatio="xMinYMin meet" x="239" y="-92.7"/>
<text text-anchor="start" x="254" y="-82.8" font-family="Helvetica,sans-Serif" font-size="11.00" fill="#000000">id</text>
<polygon fill="none" stroke="#000000" points="234,-56.7 234,-75.7 349,-75.7 349,-56.7 234,-56.7"/>
<text text-anchor="start" x="237" y="-62.8" font-family="Helvetica,sans-Serif" font-size="11.00" fill="#000000">...</text>
<polygon fill="#ffffff" stroke="transparent" points="234,-37.7 234,-56.7 268,-56.7 268,-37.7 234,-37.7"/>
<polygon fill="none" stroke="#000000" points="234,-37.7 234,-56.7 268,-56.7 268,-37.7 234,-37.7"/>
<text text-anchor="start" x="237" y="-43.8" font-family="Helvetica,sans-Serif" font-size="11.00" fill="#000000"> &#160;</text>
<polygon fill="#ffffff" stroke="transparent" points="268,-37.7 268,-56.7 317,-56.7 317,-37.7 268,-37.7"/>
<polygon fill="none" stroke="#000000" points="268,-37.7 268,-56.7 317,-56.7 317,-37.7 268,-37.7"/>
<text text-anchor="start" x="281.6105" y="-43.8" font-family="Helvetica,sans-Serif" font-size="11.00" fill="#000000">2 rows</text>
<polygon fill="#ffffff" stroke="transparent" points="317,-37.7 317,-56.7 349,-56.7 349,-37.7 317,-37.7"/>
<polygon fill="none" stroke="#000000" points="317,-37.7 317,-56.7 349,-56.7 349,-37.7 317,-37.7"/>
<text text-anchor="start" x="330.4053" y="-43.8" font-family="Helvetica,sans-Serif" font-size="11.00" fill="#000000">1 &gt;</text>
</a>
</g>
</g>
<!-- ContributionTable_SourceTable&#45;&gt;SourceTable -->
<g id="edge4" class="edge">
<title>ContributionTable_SourceTable:w&#45;&gt;SourceTable:e</title>
<path fill="none" stroke="#000000" d="M432.3218,-103.9721C399.9205,-100.6046 387.9216,-86.7 349,-86.7"/>
<polygon fill="#000000" stroke="#000000" points="439.0098,-104.3037 446.8217,-108.2956 443.0049,-104.5019 447,-104.7 447,-104.7 447,-104.7 443.0049,-104.5019 447.1783,-101.1044 439.0098,-104.3037 439.0098,-104.3037"/>
<ellipse fill="none" stroke="#000000" cx="435.8137" cy="-104.1452" rx="3.2" ry="3.2"/>
</g>
<!-- LanguageTable -->
<g id="node4" class="node">
<title>LanguageTable</title>
<g id="a_node4"><a xlink:href="../../tables/LanguageTable.html" xlink:title="LanguageTable" target="_top">
<polygon fill="#ffffff" stroke="transparent" points="194,-246.2 194,-351.2 388,-351.2 388,-246.2 194,-246.2"/>
<polygon fill="#f5f5f5" stroke="transparent" points="194,-327.7 194,-350.7 388,-350.7 388,-327.7 194,-327.7"/>
<polygon fill="none" stroke="#000000" points="194,-327.7 194,-350.7 388,-350.7 388,-327.7 194,-327.7"/>
<text text-anchor="start" x="199" y="-336.8" font-family="Helvetica,sans-Serif" font-weight="bold" font-size="11.00" fill="#000000">LanguageTable</text>
<text text-anchor="start" x="353.0437" y="-335.8" font-family="Helvetica,sans-Serif" font-size="11.00" fill="#000000">[table]</text>
<polygon fill="none" stroke="#000000" points="194,-305.7 194,-327.7 388,-327.7 388,-305.7 194,-305.7"/>
<image xlink:href="../../images/primaryKeys.png" width="11px" height="12px" preserveAspectRatio="xMinYMin meet" x="199" y="-322.7"/>
<text text-anchor="start" x="214" y="-312.8" font-family="Helvetica,sans-Serif" font-size="11.00" fill="#000000">cldf_id</text>
<polygon fill="none" stroke="#000000" points="194,-283.7 194,-305.7 388,-305.7 388,-283.7 194,-283.7"/>
<image xlink:href="../../images/foreignKeys.png" width="11px" height="12px" preserveAspectRatio="xMinYMin meet" x="199" y="-300.7"/>
<text text-anchor="start" x="214" y="-290.8" font-family="Helvetica,sans-Serif" font-size="11.00" fill="#000000">cldf_speakerArea</text>
<polygon fill="none" stroke="#000000" points="194,-264.7 194,-283.7 388,-283.7 388,-264.7 194,-264.7"/>
<text text-anchor="start" x="197" y="-270.8" font-family="Helvetica,sans-Serif" font-size="11.00" fill="#000000">...</text>
<polygon fill="#ffffff" stroke="transparent" points="194,-245.7 194,-264.7 261,-264.7 261,-245.7 194,-245.7"/>
<polygon fill="none" stroke="#000000" points="194,-245.7 194,-264.7 261,-264.7 261,-245.7 194,-245.7"/>
<text text-anchor="start" x="197" y="-251.8" font-family="Helvetica,sans-Serif" font-size="11.00" fill="#000000">&lt; 1</text>
<polygon fill="#ffffff" stroke="transparent" points="261,-245.7 261,-264.7 343,-264.7 343,-245.7 261,-245.7"/>
<polygon fill="none" stroke="#000000" points="261,-245.7 261,-264.7 343,-264.7 343,-245.7 261,-245.7"/>
<text text-anchor="start" x="286.2089" y="-251.8" font-family="Helvetica,sans-Serif" font-size="11.00" fill="#000000">1,865 rows</text>
<polygon fill="#ffffff" stroke="transparent" points="343,-245.7 343,-264.7 388,-264.7 388,-245.7 343,-245.7"/>
<polygon fill="none" stroke="#000000" points="343,-245.7 343,-264.7 388,-264.7 388,-245.7 343,-245.7"/>
<text text-anchor="start" x="369.4053" y="-251.8" font-family="Helvetica,sans-Serif" font-size="11.00" fill="#000000">1 &gt;</text>
</a>
</g>
</g>
<!-- LanguageTable&#45;&gt;MediaTable -->
<g id="edge5" class="edge">
<title>LanguageTable:w&#45;&gt;MediaTable:e</title>
<path fill="none" stroke="#000000" d="M179.9951,-299.6048C167.5984,-310.2859 167.3288,-334.7 145.5,-334.7"/>
<polygon fill="#000000" stroke="#000000" points="186.4496,-297.3443 195.1899,-298.0977 190.2248,-296.0222 194,-294.7 194,-294.7 194,-294.7 190.2248,-296.0222 192.8101,-291.3023 186.4496,-297.3443 186.4496,-297.3443"/>
<ellipse fill="none" stroke="#000000" cx="183.4295" cy="-298.402" rx="3.2" ry="3.2"/>
</g>
<!-- LanguageTable_ContributionTable -->
<g id="node5" class="node">
<title>LanguageTable_ContributionTable</title>
<g id="a_node5"><a xlink:href="../../tables/LanguageTable_ContributionTable.html" xlink:title="LanguageTable_ContributionTable" target="_top">
<polygon fill="#ffffff" stroke="transparent" points="437,-191.2 437,-296.2 689,-296.2 689,-191.2 437,-191.2"/>
<polygon fill="#f5f5f5" stroke="transparent" points="437,-272.7 437,-295.7 689,-295.7 689,-272.7 437,-272.7"/>
<polygon fill="none" stroke="#000000" points="437,-272.7 437,-295.7 689,-295.7 689,-272.7 437,-272.7"/>
<text text-anchor="start" x="442" y="-281.8" font-family="Helvetica,sans-Serif" font-weight="bold" font-size="11.00" fill="#000000">LanguageTable_ContributionTable</text>
<text text-anchor="start" x="654.0437" y="-280.8" font-family="Helvetica,sans-Serif" font-size="11.00" fill="#000000">[table]</text>
<polygon fill="none" stroke="#000000" points="437,-250.7 437,-272.7 689,-272.7 689,-250.7 437,-250.7"/>
<image xlink:href="../../images/foreignKeys.png" width="11px" height="12px" preserveAspectRatio="xMinYMin meet" x="442" y="-267.7"/>
<text text-anchor="start" x="457" y="-257.8" font-family="Helvetica,sans-Serif" font-size="11.00" fill="#000000">LanguageTable_cldf_id</text>
<polygon fill="none" stroke="#000000" points="437,-228.7 437,-250.7 689,-250.7 689,-228.7 437,-228.7"/>
<image xlink:href="../../images/foreignKeys.png" width="11px" height="12px" preserveAspectRatio="xMinYMin meet" x="442" y="-245.7"/>
<text text-anchor="start" x="457" y="-235.8" font-family="Helvetica,sans-Serif" font-size="11.00" fill="#000000">ContributionTable_cldf_id</text>
<polygon fill="none" stroke="#000000" points="437,-209.7 437,-228.7 689,-228.7 689,-209.7 437,-209.7"/>
<text text-anchor="start" x="440" y="-215.8" font-family="Helvetica,sans-Serif" font-size="11.00" fill="#000000">...</text>
<polygon fill="#ffffff" stroke="transparent" points="437,-190.7 437,-209.7 535,-209.7 535,-190.7 437,-190.7"/>
<polygon fill="none" stroke="#000000" points="437,-190.7 437,-209.7 535,-209.7 535,-190.7 437,-190.7"/>
<text text-anchor="start" x="440" y="-196.8" font-family="Helvetica,sans-Serif" font-size="11.00" fill="#000000">&lt; 2</text>
<polygon fill="#ffffff" stroke="transparent" points="535,-190.7 535,-209.7 638,-209.7 638,-190.7 535,-190.7"/>
<polygon fill="none" stroke="#000000" points="535,-190.7 535,-209.7 638,-209.7 638,-190.7 535,-190.7"/>
<text text-anchor="start" x="575.094" y="-196.8" font-family="Helvetica,sans-Serif" font-size="11.00" fill="#000000">10,301 rows</text>
<polygon fill="#ffffff" stroke="transparent" points="638,-190.7 638,-209.7 689,-209.7 689,-190.7 638,-190.7"/>
<polygon fill="none" stroke="#000000" points="638,-190.7 638,-209.7 689,-209.7 689,-190.7 638,-190.7"/>
<text text-anchor="start" x="679.8862" y="-196.8" font-family="Helvetica,sans-Serif" font-size="11.00" fill="#000000"> &#160;</text>
</a>
</g>
</g>
<!-- LanguageTable_ContributionTable&#45;&gt;ContributionTable -->
<g id="edge6" class="edge">
<title>LanguageTable_ContributionTable:w&#45;&gt;ContributionTable:e</title>
<path fill="none" stroke="#000000" d="M422.7426,-237.0655C398.0533,-226.8877 396.8985,-190.7 363,-190.7"/>
<polygon fill="#000000" stroke="#000000" points="429.1332,-238.2463 436.3459,-243.2401 433.0666,-238.9732 437,-239.7 437,-239.7 437,-239.7 433.0666,-238.9732 437.6541,-236.1599 429.1332,-238.2463 429.1332,-238.2463"/>
<ellipse fill="none" stroke="#000000" cx="425.9864" cy="-237.6649" rx="3.2" ry="3.2"/>
</g>
<!-- LanguageTable_ContributionTable&#45;&gt;LanguageTable -->
<g id="edge7" class="edge">
<title>LanguageTable_ContributionTable:w&#45;&gt;LanguageTable:e</title>
<path fill="none" stroke="#000000" d="M423.1265,-266.7757C408.7102,-280.3914 414.5999,-316.7 388,-316.7"/>
<polygon fill="#000000" stroke="#000000" points="429.487,-264.4487 438.2369,-265.0808 433.2435,-263.0743 437,-261.7 437,-261.7 437,-261.7 433.2435,-263.0743 435.7631,-258.3192 429.487,-264.4487 429.487,-264.4487"/>
<ellipse fill="none" stroke="#000000" cx="426.4818" cy="-265.5482" rx="3.2" ry="3.2"/>
</g>
</g>
</svg>

